<svg width="2581" height="608" viewBox="0 0 2581 608" fill="none" xmlns="http://www.w3.org/2000/svg">
<mask id="path-1-inside-1_9_28" fill="white">
<path d="M0 64C0 46.3269 14.3269 32 32 32H512C529.673 32 544 46.3269 544 64V544C544 561.673 529.673 576 512 576H32C14.3269 576 0 561.673 0 544V64Z"/>
</mask>
<path d="M0 64C0 46.3269 14.3269 32 32 32H512C529.673 32 544 46.3269 544 64V544C544 561.673 529.673 576 512 576H32C14.3269 576 0 561.673 0 544V64Z" fill="#87D200"/>
<path d="M0 32H544H0ZM544 576H0H544ZM0 576V32V576ZM512 32C531.882 32 548 48.1177 548 68V540C548 559.882 531.882 576 512 576C527.464 576 540 561.673 540 544V64C540 46.3269 527.464 32 512 32Z" fill="black" mask="url(#path-1-inside-1_9_28)"/>
<mask id="mask0_9_28" style="mask-type:alpha" maskUnits="userSpaceOnUse" x="0" y="32" width="544" height="544">
<rect y="32" width="544" height="544" rx="32" fill="#89DE87"/>
</mask>
<g mask="url(#mask0_9_28)">
<path d="M303 332L388.5 7H632.5L740 600L75 641L303 332Z" fill="#ADEE38"/>
<path d="M407.417 15.2551L369.955 6.09334L360.574 3.84304C359.076 3.48358 357.613 4.5561 357.506 6.09334C316.489 487.736 -21.0863 684.015 -184.849 721.949C-390.956 778.972 -683.485 864.532 -204.746 750.583C272.736 636.933 403.196 215.363 408.94 17.1989C408.967 16.2584 408.331 15.4786 407.417 15.2551Z" fill="#4A9F48"/>
<path d="M542.5 431.5C236.1 410.3 53.1668 212.666 0.000106812 116.5C-64.3332 6.33298 -157.8 -147.9 -16.9999 116.5C123.8 380.9 414.667 449.333 542.5 450.5C670.167 453 848.9 452.7 542.5 431.5Z" fill="#4A9F48"/>
<path d="M374.984 572.989C68.5845 551.789 -114.349 354.156 -167.516 257.989C-231.849 147.822 -325.316 -6.41109 -184.516 257.989C-43.7155 522.389 247.151 590.822 374.984 591.989C502.651 594.489 681.385 594.189 374.984 572.989Z" fill="#4A9F48"/>
</g>
<path d="M651.628 486V145.8H796.456C815.896 145.8 833.716 150.66 849.916 160.38C866.44 169.776 879.562 182.736 889.282 199.26C899.002 215.46 903.862 233.766 903.862 254.178C903.862 272.646 899.002 289.818 889.282 305.694C879.562 321.57 866.602 334.368 850.402 344.088C834.202 353.484 816.22 358.182 796.456 358.182H704.116V486H651.628ZM853.804 486L767.296 332.424L821.242 320.274L917.47 486.486L853.804 486ZM704.116 307.638H801.316C810.712 307.638 819.136 305.37 826.588 300.834C834.04 295.974 839.872 289.494 844.084 281.394C848.296 272.97 850.402 263.736 850.402 253.692C850.402 242.352 847.648 232.47 842.14 224.046C836.956 215.298 829.504 208.494 819.784 203.634C810.388 198.774 799.696 196.344 787.708 196.344H704.116V307.638ZM1086.49 490.86C1060.25 490.86 1036.92 485.352 1016.51 474.336C996.42 462.996 980.544 447.606 968.88 428.166C957.54 408.726 951.87 386.37 951.87 361.098C951.87 341.01 955.11 322.704 961.59 306.18C968.07 289.656 976.98 275.4 988.32 263.412C999.984 251.1 1013.75 241.704 1029.63 235.224C1045.83 228.42 1063.33 225.018 1082.12 225.018C1098.64 225.018 1114.03 228.258 1128.29 234.738C1142.54 240.894 1154.86 249.48 1165.22 260.496C1175.92 271.512 1184.02 284.634 1189.52 299.862C1195.36 314.766 1198.11 331.128 1197.79 348.948L1197.3 370.332H988.806L977.628 330.48H1154.05L1146.76 338.742V327.078C1145.78 316.386 1142.22 306.828 1136.06 298.404C1129.91 289.98 1122.13 283.338 1112.74 278.478C1103.34 273.618 1093.13 271.188 1082.12 271.188C1064.62 271.188 1049.88 274.59 1037.89 281.394C1025.9 287.874 1016.83 297.594 1010.68 310.554C1004.52 323.19 1001.44 338.904 1001.44 357.696C1001.44 375.516 1005.17 391.068 1012.62 404.352C1020.07 417.312 1030.6 427.356 1044.21 434.484C1057.82 441.612 1073.53 445.176 1091.35 445.176C1103.99 445.176 1115.65 443.07 1126.34 438.858C1137.36 434.646 1149.19 427.032 1161.82 416.016L1187.09 451.494C1179.32 459.27 1169.76 466.074 1158.42 471.906C1147.4 477.738 1135.58 482.436 1122.94 486C1110.63 489.24 1098.48 490.86 1086.49 490.86ZM1360.57 490.86C1336.91 490.86 1315.69 485.028 1296.9 473.364C1278.43 461.7 1263.69 445.824 1252.67 425.736C1241.98 405.648 1236.64 383.13 1236.64 358.182C1236.64 333.234 1241.98 310.716 1252.67 290.628C1263.69 270.54 1278.43 254.664 1296.9 243C1315.69 231.336 1336.91 225.504 1360.57 225.504C1383.25 225.504 1403.82 230.202 1422.29 239.598C1441.08 248.67 1455.34 261.144 1465.06 277.02L1437.35 311.04C1432.17 303.588 1425.53 296.784 1417.43 290.628C1409.33 284.472 1400.74 279.612 1391.67 276.048C1382.6 272.484 1373.85 270.702 1365.43 270.702C1349.87 270.702 1335.94 274.59 1323.63 282.366C1311.64 289.818 1302.08 300.186 1294.96 313.47C1287.83 326.754 1284.26 341.658 1284.26 358.182C1284.26 374.706 1287.99 389.61 1295.44 402.894C1302.89 415.854 1312.78 426.222 1325.09 433.998C1337.4 441.774 1351.01 445.662 1365.91 445.662C1374.66 445.662 1383.08 444.204 1391.18 441.288C1399.61 438.372 1407.71 433.998 1415.48 428.166C1423.26 422.334 1430.55 415.206 1437.35 406.782L1465.06 440.802C1454.69 455.382 1439.78 467.37 1420.34 476.766C1401.23 486.162 1381.3 490.86 1360.57 490.86ZM1547.92 597.78L1599.44 478.71L1599.92 518.562L1472.59 230.85H1530.91L1610.62 418.446C1612.24 421.686 1614.18 426.708 1616.45 433.512C1618.72 439.992 1620.66 446.472 1622.28 452.952L1609.64 455.868C1612.24 449.064 1614.67 442.26 1616.93 435.456C1619.53 428.652 1621.96 421.848 1624.22 415.044L1690.81 230.85H1750.1L1645.12 486L1601.87 597.78H1547.92ZM1891.18 490.86C1867.53 490.86 1846.3 485.028 1827.51 473.364C1809.04 461.7 1794.3 445.824 1783.29 425.736C1772.59 405.648 1767.25 383.13 1767.25 358.182C1767.25 333.234 1772.59 310.716 1783.29 290.628C1794.3 270.54 1809.04 254.664 1827.51 243C1846.3 231.336 1867.53 225.504 1891.18 225.504C1913.86 225.504 1934.43 230.202 1952.9 239.598C1971.69 248.67 1985.95 261.144 1995.67 277.02L1967.97 311.04C1962.78 303.588 1956.14 296.784 1948.04 290.628C1939.94 284.472 1931.35 279.612 1922.28 276.048C1913.21 272.484 1904.46 270.702 1896.04 270.702C1880.49 270.702 1866.55 274.59 1854.24 282.366C1842.25 289.818 1832.7 300.186 1825.57 313.47C1818.44 326.754 1814.88 341.658 1814.88 358.182C1814.88 374.706 1818.6 389.61 1826.05 402.894C1833.51 415.854 1843.39 426.222 1855.7 433.998C1868.01 441.774 1881.62 445.662 1896.52 445.662C1905.27 445.662 1913.7 444.204 1921.8 441.288C1930.22 438.372 1938.32 433.998 1946.1 428.166C1953.87 422.334 1961.16 415.206 1967.97 406.782L1995.67 440.802C1985.3 455.382 1970.4 467.37 1950.96 476.766C1931.84 486.162 1911.91 490.86 1891.18 490.86ZM2020.04 486L2151.75 145.8H2205.21L2335.94 486H2280.05L2202.29 280.908C2201.32 278.64 2199.38 273.132 2196.46 264.384C2193.87 255.636 2190.79 245.916 2187.23 235.224C2183.66 224.532 2180.42 214.812 2177.51 206.064C2174.59 196.992 2172.65 191.16 2171.68 188.568L2182.85 188.082C2180.91 193.59 2178.48 200.556 2175.56 208.98C2172.97 217.404 2170.06 226.314 2166.82 235.71C2163.9 245.106 2160.98 254.016 2158.07 262.44C2155.15 270.54 2152.72 277.344 2150.78 282.852L2073.5 486H2020.04ZM2078.36 401.436L2097.8 350.892H2252.35L2274.71 401.436H2078.36ZM2383.18 486V437.4H2438.1V194.4H2383.18V145.8H2545.51V194.4H2490.59V437.4H2545.51V486H2383.18Z" fill="black"/>
</svg>
